# xmcd
#
# Track frame offsets:
# 150
# 21336
# 41139
# 69886
# 95672
# 117991
# 126194
# 144567
# 154288
# 168256
# 189201
# 208170
# 231530
#
# Disc length: 3211 seconds
#
#
# Revision: 0
# Processed by: cddbd v1.5.1PL2 Copyright (c) Steve Scherf et al.
# Submitted via: FreeRIP 2.945 
#
DISCID=bc0c890d
DTITLE=Sérgio Bap - Light
DYEAR=1900
DGENRE=Blues
TTITLE0=Eagle Eye
TTITLE1=Shalceus Blues
TTITLE2=Summertime
TTITLE3=Tears of Love
TTITLE4=Suplica
TTITLE5=Acoustic One
TTITLE6=Single Love
TTITLE7=Ornitorrinco
TTITLE8=Latin Jam
TTITLE9=Boomerang
TTITLE10=Deep In My Soul
TTITLE11=Sentimantal Blues
TTITLE12=Acoustic Three
EXTD=
EXTT0=
EXTT1=
EXTT2=
EXTT3=
EXTT4=
EXTT5=
EXTT6=
EXTT7=
EXTT8=
EXTT9=
EXTT10=
EXTT11=
EXTT12=
PLAYORDER=
